Sprint_08100001_forces_filt15Hz.mot
version=1
nRows=33
nColumns=19
inDegrees=yes
endheader
time	R_ground_force_vx	R_ground_force_vy	R_ground_force_vz	R_ground_force_px	R_ground_force_py	R_ground_force_pz	R_ground_torque_x	R_ground_torque_y	R_ground_torque_z	L_ground_force_vx	L_ground_force_vy	L_ground_force_vz	L_ground_force_px	L_ground_force_py	L_ground_force_pz	L_ground_torque_x	L_ground_torque_y	L_ground_torque_z	
1.463500	  0.000000	  0.000000	  0.000000	  0.281454	  0.000000	 -0.218054	  0.000000	  0.000000	  0.000000	-89.485271	171.904256	 21.080598	  1.033579	  0.000000	 -0.405268	  0.000000	 -1.416086	  0.000000
1.464000	  0.000000	  0.000000	  0.000000	  0.283831	  0.000000	 -0.217914	  0.000000	  0.000000	  0.000000	-94.730162	188.252481	 23.238588	  1.040577	  0.000000	 -0.416523	  0.000000	 -1.210238	  0.000000
1.464500	  0.000000	  0.000000	  0.000000	  0.286208	  0.000000	 -0.217773	  0.000000	  0.000000	  0.000000	-100.136966	205.294686	 25.487358	  1.047575	  0.000000	 -0.427779	  0.000000	 -1.015691	  0.000000
1.465000	  0.000000	  0.000000	  0.000000	  0.288585	  0.000000	 -0.217633	  0.000000	  0.000000	  0.000000	-105.701593	223.039564	 27.828527	  1.054573	  0.000000	 -0.439034	  0.000000	 -0.829568	  0.000000
1.465500	  0.000000	  0.000000	  0.000000	  0.291010	  0.000000	 -0.217407	  0.000000	  0.000000	  0.000000	-111.419317	241.494788	 30.263709	  1.050980	  0.000000	 -0.436161	  0.000000	 -0.649297	  0.000000
1.466000	  0.000000	  0.000000	  0.000000	  0.293435	  0.000000	 -0.217181	  0.000000	  0.000000	  0.000000	-117.284767	260.666932	 32.794461	  1.047669	  0.000000	 -0.433516	  0.000000	 -0.472569	  0.000000
1.466500	  0.000000	  0.000000	  0.000000	  0.295860	  0.000000	 -0.216955	  0.000000	  0.000000	  0.000000	-123.291913	280.561374	 35.422236	  1.044597	  0.000000	 -0.431068	  0.000000	 -0.297319	  0.000000
1.467000	  0.000000	  0.000000	  0.000000	  0.298285	  0.000000	 -0.216729	  0.000000	  0.000000	  0.000000	-129.434046	301.182206	 38.148323	  1.041731	  0.000000	 -0.428790	  0.000000	 -0.121703	  0.000000
1.467500	  0.000000	  0.000000	  0.000000	  0.300710	  0.000000	 -0.216503	  0.000000	  0.000000	  0.000000	-135.703767	322.532132	 40.973802	  1.039041	  0.000000	 -0.426659	  0.000000	  0.055915	  0.000000
1.468000	  0.000000	  0.000000	  0.000000	  0.303135	  0.000000	 -0.216276	  0.000000	  0.000000	  0.000000	-142.092962	344.612369	 43.899494	  1.036504	  0.000000	 -0.424656	  0.000000	  0.236975	  0.000000
1.468500	  0.000000	  0.000000	  0.000000	  0.305560	  0.000000	 -0.216050	  0.000000	  0.000000	  0.000000	-148.592802	367.422540	 46.925915	  1.034098	  0.000000	 -0.422766	  0.000000	  0.422727	  0.000000
1.469000	  0.000000	  0.000000	  0.000000	  0.307985	  0.000000	 -0.215824	  0.000000	  0.000000	  0.000000	-155.193734	390.960566	 50.053243	  1.031807	  0.000000	 -0.420974	  0.000000	  0.614225	  0.000000
1.469500	  0.000000	  0.000000	  0.000000	  0.310410	  0.000000	 -0.215598	  0.000000	  0.000000	  0.000000	-161.885486	415.222551	 53.281276	  1.029615	  0.000000	 -0.419270	  0.000000	  0.812308	  0.000000
1.470000	  0.000000	  0.000000	  0.000000	  0.312835	  0.000000	 -0.215372	  0.000000	  0.000000	  0.000000	-168.657087	440.202671	 56.609402	  1.027509	  0.000000	 -0.417642	  0.000000	  1.017584	  0.000000
1.470500	  0.000000	  0.000000	  0.000000	  0.315285	  0.000000	 -0.215203	  0.000000	  0.000000	  0.000000	-175.496885	465.893049	 60.036549	  1.025479	  0.000000	 -0.416083	  0.000000	  1.230394	  0.000000
1.471000	  0.000000	  0.000000	  0.000000	  0.317735	  0.000000	 -0.215033	  0.000000	  0.000000	  0.000000	-182.392586	492.283635	 63.561140	  1.023515	  0.000000	 -0.414583	  0.000000	  1.450784	  0.000000
1.471500	  0.000000	  0.000000	  0.000000	  0.320185	  0.000000	 -0.214864	  0.000000	  0.000000	  0.000000	-189.331300	519.362076	 67.181034	  1.021607	  0.000000	 -0.413138	  0.000000	  1.678474	  0.000000
1.472000	  0.000000	  0.000000	  0.000000	  0.322635	  0.000000	 -0.214694	  0.000000	  0.000000	  0.000000	-196.299608	547.113590	 70.893474	  1.019747	  0.000000	 -0.411740	  0.000000	  1.912827	  0.000000
1.472500	  0.000000	  0.000000	  0.000000	  0.325085	  0.000000	 -0.214525	  0.000000	  0.000000	  0.000000	-203.283625	575.520830	 74.695020	  1.017929	  0.000000	 -0.410384	  0.000000	  2.152829	  0.000000
1.473000	  0.000000	  0.000000	  0.000000	  0.327535	  0.000000	 -0.214356	  0.000000	  0.000000	  0.000000	-210.269073	604.563746	 78.581487	  1.016145	  0.000000	 -0.409066	  0.000000	  2.397077	  0.000000
1.473500	  0.000000	  0.000000	  0.000000	  0.329985	  0.000000	 -0.214186	  0.000000	  0.000000	  0.000000	-217.241353	634.219577	 82.547866	  1.014390	  0.000000	 -0.407783	  0.000000	  2.643776	  0.000000
1.474000	  0.000000	  0.000000	  0.000000	  0.332435	  0.000000	 -0.214017	  0.000000	  0.000000	  0.000000	-224.185620	664.463216	 86.588241	  1.012658	  0.000000	 -0.406530	  0.000000	  2.890750	  0.000000
1.474500	  0.000000	  0.000000	  0.000000	  0.334885	  0.000000	 -0.213847	  0.000000	  0.000000	  0.000000	-231.086849	695.267909	 90.695689	  1.010943	  0.000000	 -0.405305	  0.000000	  3.135458	  0.000000
1.475000	  0.000000	  0.000000	  0.000000	  0.337335	  0.000000	 -0.213678	  0.000000	  0.000000	  0.000000	-237.929898	726.605893	 94.862193	  1.009242	  0.000000	 -0.404106	  0.000000	  3.374999	  0.000000
1.475500	  0.000000	  0.000000	  0.000000	  0.339792	  0.000000	 -0.213569	  0.000000	  0.000000	  0.000000	-244.699568	758.448863	 99.078547	  1.007551	  0.000000	 -0.402930	  0.000000	  3.606136	  0.000000
1.476000	  0.000000	  0.000000	  0.000000	  0.342248	  0.000000	 -0.213460	  0.000000	  0.000000	  0.000000	-251.380637	790.768387	103.334292	  1.005865	  0.000000	 -0.401777	  0.000000	  3.825301	  0.000000
1.476500	  0.000000	  0.000000	  0.000000	  0.344705	  0.000000	 -0.213351	  0.000000	  0.000000	  0.000000	-257.957901	823.536310	107.617675	  1.004183	  0.000000	 -0.400645	  0.000000	  4.028623	  0.000000
1.477000	  0.000000	  0.000000	  0.000000	  0.347162	  0.000000	 -0.213243	  0.000000	  0.000000	  0.000000	-264.416207	856.725095	111.915648	  1.002500	  0.000000	 -0.399534	  0.000000	  4.211953	  0.000000
1.477500	  0.000000	  0.000000	  0.000000	  0.349619	  0.000000	 -0.213134	  0.000000	  0.000000	  0.000000	-270.740503	890.308075	116.213921	  1.000815	  0.000000	 -0.398442	  0.000000	  4.370904	  0.000000
1.478000	  0.000000	  0.000000	  0.000000	  0.352075	  0.000000	 -0.213025	  0.000000	  0.000000	  0.000000	-276.915929	924.259586	120.497057	  0.999125	  0.000000	 -0.397369	  0.000000	  4.500903	  0.000000
1.478500	  0.000000	  0.000000	  0.000000	  0.354532	  0.000000	 -0.212916	  0.000000	  0.000000	  0.000000	-282.927939	958.555027	124.748624	  0.997429	  0.000000	 -0.396316	  0.000000	  4.597242	  0.000000
1.479000	  0.000000	  0.000000	  0.000000	  0.356989	  0.000000	 -0.212807	  0.000000	  0.000000	  0.000000	-288.762484	993.170861	128.951379	  0.995725	  0.000000	 -0.395282	  0.000000	  4.655146	  0.000000
1.479500	  0.000000	  0.000000	  0.000000	  0.359446	  0.000000	 -0.212698	  0.000000	  0.000000	  0.000000	-294.406231	1028.084602	133.087477	  0.994011	  0.000000	 -0.394268	  0.000000	  4.669822	  0.000000
